<?xml version="1.0" encoding="UTF-8" standalone="no"?>
<!-- Created with Inkscape (http://www.inkscape.org/) -->

<svg
   width="1000"
   height="1000"
   viewBox="0 0 1000 1000"
   version="1.1"
   id="svg1"
   inkscape:version="1.4.3 (0d15f75042, 2025-12-25)"
   sodipodi:docname="c.svg"
   xmlns:inkscape="http://www.inkscape.org/namespaces/inkscape"
   xmlns:sodipodi="http://sodipodi.sourceforge.net/DTD/sodipodi-0.dtd"
   xmlns="http://www.w3.org/2000/svg"
   xmlns:svg="http://www.w3.org/2000/svg">
  <sodipodi:namedview
     id="namedview1"
     pagecolor="#ffffff"
     bordercolor="#000000"
     borderopacity="0.25"
     inkscape:showpageshadow="false"
     inkscape:pageopacity="0.0"
     inkscape:pagecheckerboard="0"
     inkscape:deskcolor="#d1d1d1"
     inkscape:document-units="px"
     showborder="false"
     borderlayer="false"
     showguides="true"
     inkscape:zoom="0.5"
     inkscape:cx="396"
     inkscape:cy="546"
     inkscape:current-layer="svg1">
    <sodipodi:guide
       position="0,250"
       orientation="0,1"
       id="guide1"
       inkscape:locked="false"
       inkscape:label=""
       inkscape:color="rgb(0,134,229)" />
    <sodipodi:guide
       position="0,900"
       orientation="0,1"
       id="guide2"
       inkscape:locked="false"
       inkscape:label=""
       inkscape:color="rgb(0,134,229)" />
    <sodipodi:guide
       position="0,700"
       orientation="0,1"
       id="guide3"
       inkscape:locked="false"
       inkscape:label=""
       inkscape:color="rgb(0,134,229)" />
    <sodipodi:guide
       position="450,1000"
       orientation="-1,0"
       id="guide4"
       inkscape:locked="false"
       inkscape:label=""
       inkscape:color="rgb(0,134,229)" />
  </sodipodi:namedview>
  <defs
     id="defs1" />
  <path
     style="display:inline;vector-effect:non-scaling-stroke;fill:#000000;stroke:none;stroke-width:0.54443;stroke-linecap:round;stroke-opacity:1;-inkscape-stroke:hairline"
     d="M 19.492592,536.3008 C 15.52695,449.01164 49.002846,354.09681 130.39405,306.93816 c 81.17156,-47.03137 168.33852,1.33586 223.58171,54.44424 45.55639,43.79595 89.23721,121.81909 48.35068,176.02271 -25.00429,33.14838 -72.25531,52.00516 -113.72151,54.14594 -37.08952,1.9148 -90.16582,-13.86704 -105.20824,-50.74676 -11.46026,-28.09727 16.34693,-45.23783 0.97733,-65.97696 -9.8998,-13.35837 -26.03747,-14.5846 -52.65435,15.86745 -18.5036,21.16974 -29.64357,60.95576 -16.60791,98.92346 25.07469,73.0326 82.83744,81.69506 103.01227,86.91329 22.94535,5.93481 55.17415,13.71938 58.33182,32.55926 1.62349,9.68638 -4.50065,27.56256 -21.59133,42.09551 -19.63644,16.69771 -90.72953,17.5005 -133.51626,-12.16303 C 59.404756,696.0786 23.719609,629.34266 19.492592,536.3008 Z"
     id="path3"
     sodipodi:nodetypes="ssssssssssssss"
     inkscape:label="c" />
</svg>
