<?xml version="1.0" encoding="UTF-8" standalone="no"?>
<!-- Created with Inkscape (http://www.inkscape.org/) -->

<svg
   width="1000"
   height="1000"
   viewBox="0 0 1000 1000"
   version="1.1"
   id="svg1"
   inkscape:version="1.4.3 (0d15f75042, 2025-12-25)"
   sodipodi:docname="l.svg"
   xmlns:inkscape="http://www.inkscape.org/namespaces/inkscape"
   xmlns:sodipodi="http://sodipodi.sourceforge.net/DTD/sodipodi-0.dtd"
   xmlns="http://www.w3.org/2000/svg"
   xmlns:svg="http://www.w3.org/2000/svg">
  <sodipodi:namedview
     id="namedview1"
     pagecolor="#ffffff"
     bordercolor="#000000"
     borderopacity="0.25"
     inkscape:showpageshadow="false"
     inkscape:pageopacity="0.0"
     inkscape:pagecheckerboard="0"
     inkscape:deskcolor="#d1d1d1"
     inkscape:document-units="px"
     showborder="false"
     borderlayer="false"
     showguides="true"
     inkscape:zoom="0.5"
     inkscape:cx="396"
     inkscape:cy="546"
     inkscape:current-layer="svg1">
    <sodipodi:guide
       position="0,250"
       orientation="0,1"
       id="guide1"
       inkscape:locked="false"
       inkscape:label=""
       inkscape:color="rgb(0,134,229)" />
  </sodipodi:namedview>
  <defs
     id="defs1" />
  <path
     style="display:inline;vector-effect:non-scaling-stroke;fill:#000000;stroke:none;stroke-width:0.999999;stroke-linecap:round;stroke-opacity:1;-inkscape-stroke:hairline"
     d="M 442.45547,161.93706 C 484.3755,79.539576 547.63946,47.370846 594.34392,69.058986 c 42.88131,19.91278 73.128,59.242474 58.34052,139.861194 -25.68113,140.00908 -114.66599,214.08148 -159.66342,352.39998 -25.5394,78.50593 -28.29906,154.64829 5.21136,232.02954 17.39467,40.1672 41.47949,27.55684 59.03139,12.88267 18.25965,-15.26585 36.20931,-36.46427 65.68709,2.86322 21.19676,28.27941 -2.04813,76.56858 -26.99123,101.26991 -43.09134,42.67361 -118.08133,29.51071 -155.77467,-1.44427 -66.9292,-54.96438 -102.66505,-210.20504 -95.84277,-361.59145 5.7583,-127.77683 31.65392,-254.76113 98.11328,-385.39272 z"
     id="path37"
     sodipodi:nodetypes="sssssssssss"
     inkscape:label="l" />
</svg>
