<?xml version="1.0" encoding="UTF-8" standalone="no"?>
<!-- Created with Inkscape (http://www.inkscape.org/) -->

<svg
   width="1000"
   height="1000"
   viewBox="0 0 1000 1000"
   version="1.1"
   id="svg1"
   inkscape:version="1.4.3 (0d15f75042, 2025-12-25)"
   sodipodi:docname="x.svg"
   xmlns:inkscape="http://www.inkscape.org/namespaces/inkscape"
   xmlns:sodipodi="http://sodipodi.sourceforge.net/DTD/sodipodi-0.dtd"
   xmlns="http://www.w3.org/2000/svg"
   xmlns:svg="http://www.w3.org/2000/svg">
  <sodipodi:namedview
     id="namedview1"
     pagecolor="#ffffff"
     bordercolor="#000000"
     borderopacity="0.25"
     inkscape:showpageshadow="false"
     inkscape:pageopacity="0.0"
     inkscape:pagecheckerboard="0"
     inkscape:deskcolor="#d1d1d1"
     inkscape:document-units="px"
     showborder="false"
     borderlayer="false"
     showguides="true"
     inkscape:zoom="0.5"
     inkscape:cx="398"
     inkscape:cy="546"
     inkscape:current-layer="svg1"
     inkscape:lockguides="true">
    <sodipodi:guide
       position="0,250"
       orientation="0,1"
       id="guide1"
       inkscape:locked="true"
       inkscape:label=""
       inkscape:color="rgb(0,134,229)" />
    <sodipodi:guide
       position="0,900"
       orientation="0,1"
       id="guide2"
       inkscape:locked="true"
       inkscape:label=""
       inkscape:color="rgb(0,134,229)" />
    <sodipodi:guide
       position="0,680"
       orientation="0,1"
       id="guide3"
       inkscape:locked="true"
       inkscape:label=""
       inkscape:color="rgb(0,134,229)" />
    <sodipodi:guide
       position="475,1000"
       orientation="-1,0"
       id="guide4"
       inkscape:locked="true"
       inkscape:label=""
       inkscape:color="rgb(0,134,229)" />
  </sodipodi:namedview>
  <defs
     id="defs1" />
  <path
     style="display:inline;vector-effect:non-scaling-stroke;fill:#000000;stroke:none;stroke-width:0.697241;stroke-linecap:round;stroke-opacity:1;-inkscape-stroke:hairline"
     d="m 99.857599,351.81623 c 19.945591,-32.7034 69.346871,-55.30815 104.059481,-23.68886 38.46686,35.03899 49.50501,92.58567 83.9247,139.95 36.18751,-38.95442 66.36391,-88.28079 91.31668,-109.51649 35.56849,-30.27003 67.44913,-12.97645 57.88726,31.38047 -9.22897,42.8126 -62.01717,123.0508 -90.43418,155.17475 53.61173,67.70474 108.03656,90.35957 140.87473,135.04429 7.35737,10.0115 23.32661,27.89437 20.00174,42.27937 -4.03825,17.47052 -21.79591,28.63456 -50.23973,25.06783 -63.70192,-7.98792 -163.66319,-39.42946 -214.7935,-81.41111 -53.44223,36.23164 -88.26711,83.72708 -131.42696,97.11534 C 77.155159,773.71921 20.707716,768.71562 9.6114223,709.74531 -1.2095118,652.23832 37.676147,633.37268 56.163832,622.73235 74.161489,612.37407 108.33086,605.89839 142.01734,582.17581 125.07472,564.14162 95.244654,524.74041 82.091766,495.65911 59.219205,445.0875 82.394873,380.44863 99.857599,351.81623 Z"
     id="path46"
     sodipodi:nodetypes="sscsscssscssscss"
     inkscape:label="x" />
</svg>
