<?xml version="1.0" encoding="UTF-8" standalone="no"?>
<!-- Created with Inkscape (http://www.inkscape.org/) -->

<svg
   width="1000"
   height="1000"
   viewBox="0 0 1000 1000"
   version="1.1"
   id="svg1"
   inkscape:version="1.4.3 (0d15f75042, 2025-12-25)"
   sodipodi:docname="r.svg"
   xmlns:inkscape="http://www.inkscape.org/namespaces/inkscape"
   xmlns:sodipodi="http://sodipodi.sourceforge.net/DTD/sodipodi-0.dtd"
   xmlns="http://www.w3.org/2000/svg"
   xmlns:svg="http://www.w3.org/2000/svg">
  <sodipodi:namedview
     id="namedview1"
     pagecolor="#ffffff"
     bordercolor="#000000"
     borderopacity="0.25"
     inkscape:showpageshadow="false"
     inkscape:pageopacity="0.0"
     inkscape:pagecheckerboard="0"
     inkscape:deskcolor="#d1d1d1"
     inkscape:document-units="px"
     showborder="false"
     borderlayer="false"
     showguides="true"
     inkscape:zoom="0.5"
     inkscape:cx="396"
     inkscape:cy="546"
     inkscape:current-layer="svg1">
    <sodipodi:guide
       position="0,250"
       orientation="0,1"
       id="guide1"
       inkscape:locked="false"
       inkscape:label=""
       inkscape:color="rgb(0,134,229)" />
  </sodipodi:namedview>
  <defs
     id="defs1" />
  <path
     style="display:inline;vector-effect:non-scaling-stroke;fill:#000000;stroke:none;stroke-width:0.999999;stroke-linecap:round;stroke-opacity:1;-inkscape-stroke:hairline"
     d="m 252.06122,261.09132 c 23.16472,-30.51855 64.1794,-44.06532 90.816,-10.56978 13.63804,17.14972 15.64459,55.55232 47.39678,53.32134 60.14552,-4.22596 129.93714,-50.03523 172.90848,-93.24517 56.65739,-56.972 76.36044,-102.74064 164.3486,-93.22345 56.50431,6.11168 99.14268,69.27394 100.3045,118.4993 1.66413,70.51729 -26.62677,119.74005 -95.6999,178.1559 -51.94167,43.92763 -187.25934,84.92156 -242.58331,70.93009 -45.69751,-11.55685 -88.09966,-81.77106 -124.10419,-51.34953 -72.17386,60.98233 20.02053,193.45799 64.09852,280.21546 23.96976,47.17867 16.69833,92.09752 -10.12687,129.16025 -25.23779,34.87026 -102.20031,66.30871 -156.91313,10.21879 -61.60441,-63.1547 -93.6756,-192.35498 -90.14854,-309.67246 2.88189,-95.85615 30.9343,-218.19035 79.70306,-282.44074 z"
     id="path41"
     sodipodi:nodetypes="ssssssssssssss"
     inkscape:label="r" />
</svg>
